<svg width="137" height="24" viewBox="0 0 137 24" fill="none" xmlns="http://www.w3.org/2000/svg">
  <path d="M20.5 4.5C20.5 6.5 18.5 8.5 16.5 8.5C14.5 8.5 12.5 6.5 12.5 4.5C12.5 2.5 14.5 0.5 16.5 0.5C18.5 0.5 20.5 2.5 20.5 4.5Z" fill="white"/>
  <path d="M24 14.5C24 17.5376 21.5376 20 18.5 20C15.4624 20 13 17.5376 13 14.5C13 11.4624 15.4624 9 18.5 9C21.5376 9 24 11.4624 24 14.5Z" fill="white"/>
  <path d="M12 12.5C12 14.5 10 16.5 8 16.5C6 16.5 4 14.5 4 12.5C4 10.5 6 8.5 8 8.5C10 8.5 12 10.5 12 12.5Z" fill="white"/>
  <path d="M30 17.5L32 21.5L34 17.5H36V23.5H34.5V19.5L32.5 23.5H31.5L29.5 19.5V23.5H28V17.5H30Z" fill="white"/>
  <path d="M41.5 22H44.5V23.5H39.5V17.5H44.5V19H41.5V19.75H44V21.25H41.5V22Z" fill="white"/>
  <path d="M50 17.5V23.5H48.5V17.5H50Z" fill="white"/>
  <path d="M53 17.5L55 21.5L57 17.5H59V23.5H57.5V19.5L55.5 23.5H54.5L52.5 19.5V23.5H51V17.5H53Z" fill="white"/>
  <path d="M64.5 22H67.5V23.5H62.5V17.5H67.5V19H64.5V19.75H67V21.25H64.5V22Z" fill="white"/>
  <path d="M69 17.5H71L73 20L75 17.5H77L74 21V23.5H72V21L69 17.5Z" fill="white"/>
  <path d="M81.5 22H84.5V23.5H79.5V17.5H81V22Z" fill="white"/>
  <path d="M89 17.5C90.3333 17.5 91.3333 17.8333 92 18.5C92.6667 19.1667 93 20.0833 93 21.25C93 22.0833 92.8333 22.75 92.5 23.25C92.1667 23.75 91.6667 24.0833 91 24.25C90.3333 24.4167 89.5 24.5 88.5 24.5H85.5V17.5H89ZM88.5 23C89.6667 23 90.25 22.4167 90.25 21.25C90.25 20.0833 89.6667 19.5 88.5 19.5H87V23H88.5Z" fill="white"/>
  <path d="M98.5 22H101.5V23.5H96.5V17.5H101.5V19H98.5V19.75H101V21.25H98.5V22Z" fill="white"/>
  <path d="M103 17.5H106C107.333 17.5 108.333 17.8333 109 18.5C109.667 19.1667 110 20.0833 110 21.25C110 22.4167 109.667 23.3333 109 24C108.333 24.6667 107.333 25 106 25H103V17.5ZM106 23.5C106.833 23.5 107.417 23.25 107.75 22.75C108.083 22.25 108.25 21.5833 108.25 20.75C108.25 19.9167 108.083 19.3333 107.75 19C107.417 18.6667 106.833 18.5 106 18.5H104.5V23.5H106Z" fill="white"/>
  <path d="M115 17.5V23.5H113.5V17.5H115Z" fill="white"/>
  <path d="M122.5 22H125.5V23.5H120.5V17.5H122V22Z" fill="white"/>
  <path d="M129 23.5V17.5H132C133.333 17.5 134.333 17.8333 135 18.5C135.667 19.1667 136 20.0833 136 21.25C136 22.4167 135.667 23.3333 135 24C134.333 24.6667 133.333 25 132 25H129V23.5ZM132 23.5C132.833 23.5 133.417 23.25 133.75 22.75C134.083 22.25 134.25 21.5833 134.25 20.75C134.25 19.9167 134.083 19.3333 133.75 19C133.417 18.6667 132.833 18.5 132 18.5H130.5V23.5H132Z" fill="white"/>
</svg> 